<svg id="Capa_1" enable-background="new 0 0 512 512" height="512" viewBox="0 0 512 512" width="512" xmlns="http://www.w3.org/2000/svg"><g><path d="m316 0c-22.559 0-43.638 9.653-60 27.026-16.362-17.373-37.441-27.026-60-27.026-57.891 0-105 48.109-105 106 0 58.228 42.729 88.286 92.212 123.105 20.405 14.355 41.514 29.209 62.959 47.813l9.814 8.525.015-.013 9.814-8.498c24.243-20.977 47.3-37.397 67.632-51.885 48.911-34.818 87.554-62.328 87.554-119.047 0-57.891-47.109-106-105-106z" fill="#ff6e83"/><path d="m333.446 225.048c48.911-34.819 87.554-62.329 87.554-119.048 0-57.891-47.109-106-105-106-22.559 0-43.638 9.653-60 27.026v258.404l9.814-8.498c24.244-20.976 47.3-37.397 67.632-51.884z" fill="#ff3b7f"/><path d="m494.001 137.199c-30.601 0-38.5 142.2-39.101 145.201-3.047 20.836-17.725 51.68-42.513 70.252l-64.971 47.173-17.988-24.023 64.971-47.159c25.737-19.296 37.467-52.244 5.301-52.244-28.808 0-97.657 33.353-113.621 46.584-28.894 23.947-28.083 53.716-30.079 62.106 0-24-10.455-47.437-33.6-64.889-42.301-29.101-89.399-43.801-110.099-43.801-32.166 0-20.436 32.948 5.301 52.244l64.971 47.159-17.988 24.023-64.971-47.173c-24.79-18.572-39.467-49.416-42.514-70.252-.601-3.001-8.5-145.201-39.101-145.201-16.8 1.5-18.7 50.4-17.799 97.2.601 34.2 3.4 67.5 4.899 79.801 4.801 34.799 41.501 69 76.901 102.299 18.6 17.1 36.599 33.9 49.2 50.4 12 15 19.8 30.7 19.8 45.101h105 105c0-14.401 7.8-30.101 19.799-45.101 12.601-16.5 30.601-33.3 49.2-50.4 35.4-33.3 72.1-67.5 76.901-102.299 1.5-12.301 4.299-45.601 4.899-79.801.902-46.8-.998-95.7-17.798-97.2z" fill="#ffe1ba"/><path d="m380.799 466.899c12.601-16.5 30.601-33.3 49.2-50.4 35.4-33.3 72.1-67.5 76.901-102.299 1.5-12.301 4.299-45.601 4.899-79.801.901-46.8-.999-95.7-17.799-97.2-30.601 0-38.5 142.2-39.101 145.201-3.047 20.836-17.725 51.68-42.513 70.252l-64.971 47.173-17.988-24.023 64.971-47.159c25.737-19.296 37.467-52.244 5.301-52.244-28.808 0-97.657 33.353-113.621 46.584-28.894 23.947-28.083 53.716-30.079 62.106v126.911h105c.001-14.401 7.801-30.101 19.8-45.101z" fill="#ffbfab"/><path d="m271 121v-30h-15-15v30h-30v30h30v30h15 15v-30h30v-30z" fill="#ffe1ba"/><path d="m271 151h30v-30h-30v-30h-15v90h15z" fill="#ffbfab"/></g></svg>